<svg aria-hidden="true" style="position: absolute; width: 0; height: 0; overflow: hidden;" version="1.1" xmlns="http://www.w3.org/2000/svg" xmlns:xlink="http://www.w3.org/1999/xlink">
<defs>
<symbol id="icon-Group-75" viewBox="0 0 35 32">
<path fill="#fff" style="fill: var(--color1, #fff)" d="M0 0h34.743v32h-34.743v-32z"></path>
<path fill="#00feff" style="fill: var(--color2, #00feff)" d="M5.943 7.771h28.8v24.229h-28.8v-24.229z"></path>
<path fill="#001e42" style="fill: var(--color3, #001e42)" d="M14.992 5.643c0-0.194-0.071-0.412-0.174-0.578-0.217-0.352-0.499-0.664-0.713-1.019-0.168-0.277-0.373-0.387-0.689-0.381-0.501 0.009-5.982 0.013-6.34-0.005-0.454-0.023-0.765 0.104-0.968 0.531-0.126 0.264-0.337 0.487-0.483 0.742-0.126 0.22-0.302 0.461-0.303 0.694-0.016 5.719-0.015 11.439-0.011 17.157 0 0.554 0.199 0.744 0.762 0.744 2.716 0.004 5.431 0.003 8.147-0.001 0.591-0.001 0.779-0.183 0.779-0.774 0.003-5.702 0.003-11.407-0.008-17.111zM6.647 7c0.004-0.542 0.155-0.706 0.68-0.708 1.884-0.006 3.767-0.008 5.651-0.001 0.524 0.001 0.689 0.171 0.693 0.701 0.008 0.935 0.006 1.871 0 2.806-0.004 0.553-0.165 0.705-0.726 0.706-0.934 0.004-1.869 0.001-2.803 0.001 0-0.001 0-0.001 0-0.002-0.934 0-1.869 0.004-2.803-0.001-0.523-0.003-0.688-0.165-0.691-0.695-0.008-0.936-0.006-1.871-0.001-2.807zM10.111 22.69c-0.724-0.022-1.281-0.622-1.247-1.349 0.032-0.697 0.624-1.231 1.34-1.206 0.714 0.024 1.262 0.596 1.248 1.3-0.014 0.718-0.61 1.277-1.341 1.255zM13.115 19.13c-0.992 0.005-1.984 0.001-2.975 0.001-0.977 0-1.954 0.004-2.931-0.001-0.504-0.003-0.561-0.071-0.563-0.616-0.003-0.578 0.038-0.636 0.534-0.636 1.984-0.004 3.967-0.004 5.951 0 0.496 0.001 0.543 0.066 0.543 0.631-0.003 0.55-0.057 0.619-0.559 0.621zM13.115 16.36c-0.992 0.005-1.984 0.001-2.976 0.001s-1.984-0.015-2.975 0.006c-0.51 0.011-0.515-0.287-0.526-0.663-0.011-0.401 0.094-0.602 0.542-0.6 1.984 0.014 3.967 0.001 5.951 0.006 0.491 0.001 0.543 0.072 0.543 0.631-0.001 0.55-0.052 0.615-0.558 0.617zM13.179 13.597c-1.007-0.019-2.015-0.006-3.021-0.006-1.007 0-2.015-0.014-3.021 0.006-0.452 0.009-0.504-0.231-0.497-0.589 0.006-0.351-0.004-0.645 0.494-0.641 2.015 0.015 4.028 0.014 6.043 0 0.486-0.004 0.502 0.276 0.502 0.635-0.001 0.356-0.047 0.605-0.5 0.596z"></path>
<path fill="#001e42" style="fill: var(--color3, #001e42)" d="M30.148 23.422l-4.038-1.698-2.7-3.703h2.394c0.344 0 0.651-0.252 0.684-0.595 0.038-0.394-0.27-0.724-0.656-0.724h-8.024c-0.128 0-0.233-0.104-0.233-0.234v-0.898c0-0.344-0.251-0.652-0.594-0.685-0.393-0.038-0.723 0.271-0.723 0.657v8.722c0 0.222-0.18 0.403-0.402 0.403h-7.361c-0.461-0.292-1.005-0.461-1.59-0.461s-1.129 0.17-1.59 0.461h-1.261c-0.19 0-0.345-0.155-0.345-0.346v-9.114c0-0.179-0.145-0.325-0.325-0.325h-0.159c-1.529 0-2.768 1.242-2.768 2.773v9.456c0 0.21 0.169 0.379 0.378 0.379h2.861v0.013h0.245c0.157 1.498 1.426 2.669 2.964 2.669s2.806-1.171 2.964-2.669h10.732c0.157 1.498 1.426 2.669 2.964 2.669s2.806-1.171 2.964-2.669h4.005c0.306 0 0.553-0.248 0.553-0.554v-2.511c0-0.741-0.938-1.015-0.938-1.015zM7.974 28.684c-0.003 0.001-0.004 0.004-0.006 0.005-0.036 0.025-0.072 0.049-0.11 0.072-0.011 0.006-0.022 0.014-0.033 0.020-0.033 0.019-0.067 0.037-0.102 0.055-0.016 0.009-0.034 0.017-0.051 0.025-0.032 0.014-0.063 0.028-0.095 0.041-0.022 0.009-0.044 0.017-0.067 0.024-0.029 0.010-0.060 0.020-0.089 0.029-0.027 0.008-0.055 0.014-0.082 0.022-0.027 0.006-0.055 0.014-0.082 0.019-0.034 0.006-0.068 0.011-0.103 0.015-0.023 0.003-0.046 0.008-0.069 0.009-0.055 0.005-0.11 0.008-0.166 0.009-0.004 0-0.008 0-0.010 0-0.004 0-0.006 0-0.010 0-0.056 0-0.112-0.003-0.167-0.009-0.023-0.003-0.046-0.006-0.069-0.009-0.034-0.005-0.070-0.009-0.104-0.015-0.028-0.005-0.055-0.013-0.081-0.019-0.028-0.006-0.056-0.014-0.084-0.022-0.030-0.009-0.060-0.019-0.089-0.029-0.023-0.008-0.046-0.017-0.067-0.025-0.032-0.013-0.063-0.027-0.095-0.041-0.018-0.008-0.034-0.017-0.052-0.025-0.034-0.017-0.069-0.036-0.101-0.055-0.011-0.006-0.023-0.014-0.034-0.020-0.037-0.023-0.074-0.046-0.109-0.071-0.003-0.001-0.005-0.004-0.008-0.005-0.48-0.344-0.787-0.912-0.768-1.552 0.029-0.949 0.801-1.736 1.748-1.782 1.056-0.051 1.928 0.793 1.928 1.838-0.004 0.617-0.308 1.162-0.773 1.496zM18.7 21.894c-0.164 0-0.297-0.133-0.297-0.297v-2.717c0-0.164 0.133-0.297 0.297-0.297h3.359c0.096 0 0.186 0.047 0.242 0.126l1.914 2.717c0.138 0.197-0.001 0.469-0.242 0.469h-5.274zM24.632 28.684c-0.003 0.001-0.004 0.003-0.006 0.004-0.036 0.025-0.074 0.050-0.11 0.072-0.011 0.006-0.022 0.014-0.033 0.020-0.033 0.019-0.067 0.037-0.102 0.055-0.017 0.009-0.034 0.017-0.051 0.024-0.032 0.014-0.063 0.028-0.095 0.041-0.022 0.009-0.044 0.017-0.067 0.024-0.029 0.010-0.060 0.020-0.090 0.029-0.027 0.008-0.055 0.014-0.082 0.022-0.028 0.006-0.055 0.014-0.082 0.019-0.034 0.006-0.069 0.011-0.103 0.015-0.023 0.003-0.046 0.008-0.069 0.009-0.055 0.005-0.11 0.008-0.166 0.009-0.004 0-0.008 0-0.011 0s-0.006 0-0.010 0c-0.056 0-0.112-0.003-0.168-0.009-0.023-0.003-0.046-0.006-0.068-0.009-0.034-0.005-0.070-0.009-0.104-0.015-0.028-0.005-0.055-0.013-0.081-0.019-0.028-0.006-0.056-0.014-0.084-0.022-0.030-0.009-0.060-0.019-0.089-0.029-0.023-0.008-0.046-0.017-0.068-0.025-0.032-0.013-0.063-0.027-0.095-0.041-0.018-0.008-0.036-0.017-0.052-0.025-0.034-0.017-0.067-0.034-0.1-0.053-0.011-0.006-0.023-0.014-0.034-0.020-0.037-0.023-0.074-0.046-0.109-0.071-0.003-0.003-0.005-0.004-0.009-0.006-0.478-0.344-0.787-0.912-0.768-1.552 0.029-0.949 0.8-1.736 1.748-1.782 1.056-0.051 1.928 0.793 1.928 1.838 0.001 0.62-0.303 1.165-0.769 1.499zM30.037 25.757c-0.331 0-0.6-0.361-0.6-0.807 0-0.445 0.269-0.807 0.6-0.807s0.6 0.361 0.6 0.807c0 0.445-0.269 0.807-0.6 0.807z"></path>
</symbol>
<symbol id="icon-Group-73" viewBox="0 0 35 32">
<path fill="#fff" style="fill: var(--color1, #fff)" d="M0 0h34.743v32h-34.743v-32z"></path>
<path fill="#00feff" style="fill: var(--color2, #00feff)" d="M5.943 7.771h28.8v24.229h-28.8v-24.229z"></path>
<path fill="#001e42" style="fill: var(--color3, #001e42)" d="M10.785 26.067c-2.287-0.003-4.573-0.003-6.86-0.003-1.144 0-2.287-0.002-3.43 0.003-0.385 0.002-0.489 0.107-0.492 0.49-0.004 0.385-0.002 0.769-0.001 1.154 0.001 0.53 0.072 0.601 0.605 0.604h2.657c0.161-0.001 0.322-0.003 0.484-0.005 0.039-0.001 0.074 0.001 0.107 0.005h4.694c0.768 0 1.536 0 2.304-0.001 0.396-0.001 0.491-0.093 0.496-0.482 0.006-0.396 0.003-0.791 0.003-1.187-0.001-0.507-0.063-0.577-0.566-0.578zM1.289 27.659c-0.243-0.009-0.448-0.226-0.449-0.473-0.001-0.245 0.209-0.458 0.456-0.464 0.268-0.006 0.477 0.202 0.474 0.471s-0.217 0.476-0.481 0.466zM2.96 27.657c-0.272 0.005-0.477-0.205-0.469-0.483 0.007-0.26 0.208-0.454 0.468-0.451 0.259 0.003 0.457 0.205 0.457 0.465s-0.2 0.463-0.456 0.468zM4.611 27.658c-0.258 0.007-0.489-0.214-0.492-0.467-0.002-0.243 0.21-0.458 0.458-0.467 0.265-0.010 0.486 0.202 0.485 0.467-0.001 0.251-0.204 0.462-0.451 0.468zM10.537 27.076c-0.007 0.065 0 0.132-0.001 0.197-0.003 0.431-0.047 0.478-0.467 0.481-0.417 0.003-0.834 0.001-1.25 0.001-0.45-0.001-0.899-0.007-1.349 0.002-0.265 0.005-0.387-0.112-0.384-0.372 0.001-0.033-0.001-0.066-0.001-0.099-0.010-0.648 0.015-0.675 0.65-0.674 0.79 0.002 1.579 0.012 2.369 0.004 0.328-0.002 0.465 0.139 0.433 0.46z"></path>
<path fill="#001e42" style="fill: var(--color3, #001e42)" d="M28.799 26.646c-0.001-0.507-0.063-0.577-0.566-0.578-2.287-0.003-4.573-0.003-6.86-0.003-1.144 0-2.287-0.002-3.43 0.003-0.386 0.002-0.489 0.107-0.492 0.49-0.004 0.385-0.002 0.769-0.001 1.154 0.001 0.53 0.072 0.601 0.605 0.604h2.657c0.161-0.001 0.322-0.003 0.484-0.005 0.039-0.001 0.074 0.001 0.107 0.005h4.694c0.768 0 1.536 0 2.304-0.001 0.396-0.001 0.491-0.093 0.496-0.482 0.006-0.395 0.003-0.791 0.003-1.187zM18.737 27.659c-0.243-0.009-0.448-0.226-0.449-0.473-0.001-0.245 0.209-0.458 0.456-0.464 0.268-0.006 0.477 0.202 0.474 0.471s-0.216 0.476-0.481 0.466zM20.408 27.657c-0.272 0.005-0.477-0.205-0.469-0.483 0.007-0.26 0.208-0.454 0.468-0.451 0.259 0.003 0.457 0.205 0.456 0.465s-0.2 0.463-0.456 0.468zM22.059 27.658c-0.258 0.007-0.489-0.214-0.492-0.467-0.002-0.243 0.21-0.458 0.458-0.467 0.265-0.010 0.486 0.202 0.485 0.467-0.001 0.251-0.204 0.462-0.451 0.468zM27.985 27.076c-0.007 0.065 0 0.132-0.001 0.197-0.003 0.431-0.047 0.478-0.467 0.481-0.417 0.003-0.834 0.001-1.25 0.001-0.45-0.001-0.899-0.007-1.349 0.002-0.265 0.005-0.387-0.112-0.384-0.372 0.001-0.033-0.001-0.066-0.001-0.099-0.010-0.648 0.015-0.675 0.65-0.674 0.79 0.002 1.579 0.012 2.369 0.004 0.329-0.002 0.465 0.139 0.433 0.46z"></path>
<path fill="#001e42" style="fill: var(--color3, #001e42)" d="M21.234 15.321c0.142 0.082 0.281 0.213 0.432 0.23 0.318 0.035 0.906 0.019 1.227 0.008 0.038-0.002 0.063 0.001 0.079 0.006h-0.063v1.882c-1.363 0-2.726 0-4.089 0-0.595 0-0.728 0.128-0.728 0.706-0.001 2.111-0.001 4.222 0 6.332 0 0.536 0.146 0.683 0.69 0.683 2.892 0.002 5.784 0.001 8.676-0.002 0.582-0.001 0.713-0.138 0.713-0.725 0.001-2.089 0-4.178 0.001-6.266 0-0.6-0.128-0.728-0.741-0.729-1.183-0.001-2.364 0-3.547 0v-1.884c0.479 0 0.936 0 1.393 0 0.402-0.001 0.544-0.14 0.548-0.543 0.003-0.303 0.007-0.605-0.002-0.908-0.008-0.285-0.148-0.449-0.43-0.451-1.26-0.009-2.52-0.012-3.78 0.007-0.131 0.002-0.259 0.165-0.39 0.251-0.086 0.057-0.175 0.153-0.264 0.154-1.269 0.011-2.538 0.012-3.807 0.003-0.096-0.001-0.241-0.063-0.28-0.139-0.118-0.229-0.3-0.287-0.53-0.286-0.401 0.003-0.801-0.012-1.201 0.004-0.298 0.012-0.268-0.172-0.269-0.347h0.014v-1.195l6.302-0.003c0.048 0.002 0.096 0.003 0.145 0.003 2.018 0 3.654-1.636 3.654-3.654 0-1.603-1.032-2.964-2.468-3.457 0.167-0.418 0.259-0.873 0.259-1.35-0.002-2.017-1.637-3.653-3.656-3.653-1.206 0-2.276 0.585-2.942 1.487-0.465-0.214-0.982-0.335-1.528-0.335-0.709 0-1.371 0.203-1.932 0.553-0.513-0.275-1.1-0.431-1.723-0.431-1.978 0-3.588 1.572-3.651 3.536-1.963 0.063-3.536 1.673-3.536 3.651 0 2.018 1.636 3.654 3.654 3.654h6.444v1.132c-0.010 0.021-0.016 0.042-0.016 0.063 0.006 0.183 0.018 0.359-0.258 0.346-0.293-0.014-0.586-0.003-0.879-0.002-0.221 0.001-0.393 0.063-0.495 0.29-0.031 0.070-0.164 0.134-0.25 0.134-1.396 0.008-2.793 0.008-4.189-0.001-0.091-0.001-0.183-0.099-0.273-0.153-0.149-0.089-0.296-0.254-0.446-0.257-1.23-0.021-2.461-0.013-3.692-0.010-0.283 0.001-0.44 0.155-0.45 0.432-0.011 0.351-0.013 0.703 0.003 1.054 0.014 0.288 0.163 0.415 0.456 0.419 0.41 0.005 1.088 0.009 1.497-0.001 0.038-0.001 0.063 0.001 0.078 0.006h-0.078v1.882c-1.183 0-2.367 0-3.55 0-0.595 0-0.728 0.128-0.728 0.706 0.001 2.11 0.001 4.221 0.003 6.332 0 0.536 0.146 0.683 0.69 0.683 2.892 0.002 5.784 0.002 8.676-0.001 0.582-0.001 0.713-0.138 0.713-0.725 0.001-2.089 0-4.178 0.001-6.267 0-0.6-0.128-0.728-0.741-0.729-1.362-0.001-2.724 0-4.086 0v-1.882c0.322-0.008 0.904 0.015 1.224-0.014 0.137-0.013 0.324-0.090 0.385-0.198 0.101-0.178 0.22-0.217 0.399-0.216 1.347 0.003 2.696 0.003 4.043 0 0.169-0.001 0.278 0.033 0.37 0.206 0.058 0.109 0.245 0.208 0.376 0.21 1.25 0.015 2.501 0.015 3.75-0.001 0.129-0.002 0.311-0.106 0.374-0.216 0.097-0.17 0.212-0.2 0.379-0.199 1.249 0.004 2.5 0.001 3.749 0.014 0.096-0.001 0.191 0.111 0.288 0.167zM26.359 18.436c0.685 0.002 0.92 0.231 0.921 0.903 0.003 1.32 0.003 2.638 0.001 3.958-0.001 0.651-0.248 0.9-0.897 0.901-2.188 0.003-4.376 0.003-6.564 0-0.574-0.001-0.82-0.245-0.823-0.827-0.005-1.386-0.005-2.77 0.001-4.156 0.003-0.533 0.234-0.77 0.764-0.774 1.122-0.008 2.243-0.003 3.364-0.003v-0.003c1.078 0 2.156-0.002 3.233 0.001zM8.911 18.436c0.685 0.002 0.92 0.231 0.921 0.903 0.003 1.32 0.003 2.638 0.001 3.958-0.001 0.651-0.248 0.9-0.897 0.901-2.188 0.003-4.376 0.003-6.564 0-0.574-0.001-0.82-0.245-0.823-0.827-0.005-1.386-0.005-2.77 0.001-4.156 0.003-0.533 0.234-0.77 0.764-0.774 1.122-0.008 2.243-0.003 3.364-0.003v-0.003c1.077 0 2.155-0.002 3.233 0.001z"></path>
</symbol>
<symbol id="icon-Group-71" viewBox="0 0 35 32">
<path fill="#fff" style="fill: var(--color1, #fff)" d="M0 0h34.743v32h-34.743v-32z"></path>
<path fill="#00feff" style="fill: var(--color2, #00feff)" d="M5.943 7.771h28.8v24.229h-28.8v-24.229z"></path>
<path fill="#001e42" style="fill: var(--color3, #001e42)" d="M25.957 6.227h-0.017v0.165h0.017v-0.165z"></path>
<path fill="#001e42" style="fill: var(--color3, #001e42)" d="M19.088 14.835v-0.344l-0.563-0.864-0.472 0.3 0.474 0.728v0.179h-4.75v-1.809c0.131-0.145 0.207-0.327 0.207-0.525 0-0.434-0.357-0.787-0.796-0.787 0 0 0 0-0.002 0-0.213 0-0.413 0.082-0.563 0.23-0.152 0.148-0.235 0.346-0.235 0.558 0 0.201 0.080 0.384 0.207 0.525v0.748c0.224 0.381 0.496 0.735 0.82 1.056 0.45 0.445 0.97 0.796 1.534 1.046h4.234c0.561-0.249 1.077-0.598 1.525-1.039h-1.621v-0.004zM13.357 12.668c-0.022 0.022-0.048 0.038-0.076 0.051h-0.191c-0.087-0.037-0.148-0.121-0.148-0.22 0-0.064 0.026-0.124 0.070-0.17 0.046-0.046 0.107-0.070 0.17-0.070 0.133 0 0.242 0.108 0.242 0.24 0.004 0.064-0.022 0.124-0.068 0.168z"></path>
<path fill="#001e42" style="fill: var(--color3, #001e42)" d="M20.339 19.59c-0.385 0.146-0.779 0.267-1.181 0.36v0.928c-0.13 0.141-0.205 0.32-0.207 0.514v0.026c0.007 0.205 0.094 0.395 0.246 0.536 0.144 0.134 0.333 0.207 0.531 0.207 0.006 0 0.013 0 0.018 0h0.006c0.2 0.004 0.407-0.075 0.559-0.22 0.15-0.145 0.235-0.338 0.237-0.545v-0.011c-0.006-0.194-0.085-0.37-0.207-0.503v-1.292h-0.002zM19.921 21.547c-0.044 0.042-0.102 0.068-0.161 0.064h-0.026c-0.059 0.002-0.115-0.018-0.159-0.059-0.043-0.040-0.068-0.095-0.070-0.157 0-0.060 0.024-0.117 0.068-0.159 0.041-0.040 0.094-0.062 0.155-0.064h0.020c0.133-0.004 0.233 0.095 0.241 0.221 0 0.059-0.026 0.113-0.068 0.154z"></path>
<path fill="#001e42" style="fill: var(--color3, #001e42)" d="M16.592 20.18c-0.4-0.020-0.794-0.068-1.181-0.137v0.827c-0.133 0.141-0.211 0.324-0.213 0.521v0.026c0.007 0.205 0.094 0.395 0.246 0.536 0.080 0.073 0.174 0.128 0.274 0.163v1.791c0 0.073-0.059 0.134-0.139 0.135h-15.122v0.549h15.132c0.381-0.004 0.687-0.313 0.685-0.686v-1.791c0.296-0.106 0.514-0.386 0.52-0.717v-0.011c-0.006-0.192-0.081-0.362-0.202-0.496v-0.71zM16.007 21.611h-0.026c-0.002 0-0.006 0-0.007 0-0.118 0-0.218-0.093-0.222-0.218 0-0.060 0.024-0.117 0.068-0.159 0.041-0.040 0.094-0.062 0.155-0.064h0.020c0.137-0.004 0.233 0.095 0.241 0.221-0.004 0.124-0.104 0.227-0.229 0.22z"></path>
<path fill="#001e42" style="fill: var(--color3, #001e42)" d="M1.042 21.287c2.080 0.002 4.158 0.002 6.238-0.002 0.453 0 0.596-0.139 0.596-0.584 0-1.16 0-2.32 0-3.48h1.688v0.873c0 0.476 0.39 0.862 0.872 0.862h1.229v1.919c-0.13 0.141-0.205 0.32-0.207 0.514v0.026c0.007 0.205 0.094 0.395 0.246 0.536 0.144 0.134 0.333 0.207 0.531 0.207 0.006 0 0.013 0 0.018 0h0.006c0.004 0 0.007 0 0.011 0 0.205 0 0.4-0.077 0.546-0.22 0.15-0.145 0.235-0.338 0.237-0.545v-0.011c-0.006-0.194-0.085-0.37-0.207-0.503v-1.709c-0.651-0.338-1.262-0.757-1.821-1.25h-0.409v-0.384c-0.392-0.392-0.742-0.812-1.051-1.257v0.39h-1.686c0-2.967-0.002-5.937-0.006-8.904 0-0.146-0.054-0.311-0.133-0.437-0.167-0.267-0.383-0.503-0.546-0.77-0.128-0.209-0.285-0.293-0.527-0.287-0.385 0.007-4.58 0.011-4.854-0.004-0.348-0.016-0.587 0.079-0.74 0.402-0.096 0.199-0.259 0.368-0.37 0.562-0.096 0.167-0.231 0.349-0.231 0.525-0.015 4.321-0.013 8.644-0.011 12.967 0 0.419 0.152 0.564 0.583 0.564zM12.081 21.236c0.041-0.040 0.094-0.062 0.155-0.064h0.020c0.13-0.004 0.233 0.095 0.241 0.221-0.002 0.058-0.026 0.113-0.070 0.154-0.044 0.042-0.098 0.068-0.161 0.064h-0.026c-0.057 0.002-0.117-0.018-0.159-0.059s-0.068-0.095-0.070-0.157c0.002-0.060 0.026-0.117 0.070-0.159zM4.135 20.652c-0.555-0.017-0.981-0.47-0.955-1.019 0.024-0.527 0.477-0.931 1.027-0.911 0.546 0.018 0.966 0.45 0.955 0.982-0.011 0.542-0.468 0.964-1.027 0.948zM6.433 17.961c-0.759 0.004-1.519 0.002-2.278 0.002-0.748 0-1.495 0.002-2.245 0-0.385-0.002-0.429-0.053-0.431-0.466-0.002-0.437 0.030-0.481 0.409-0.481 1.519-0.004 3.037-0.004 4.556 0 0.379 0 0.416 0.049 0.416 0.477 0 0.415-0.043 0.466-0.427 0.468zM1.481 8.792c0.002-0.41 0.118-0.534 0.52-0.536 1.442-0.005 2.885-0.005 4.327-0.002 0.402 0.002 0.527 0.13 0.531 0.531 0.006 0.706 0.006 1.414 0 2.122-0.004 0.417-0.126 0.532-0.555 0.534-0.716 0.002-1.43 0-2.147 0v-0.002c-0.716 0-1.43 0.002-2.147-0.002-0.402-0.002-0.526-0.124-0.529-0.525-0.004-0.706-0.004-1.414 0-2.12zM1.853 12.848c1.541 0.011 3.085 0.011 4.626 0 0.372-0.002 0.385 0.209 0.385 0.479 0 0.267-0.035 0.456-0.381 0.45-0.772-0.015-1.542-0.005-2.313-0.005s-1.543-0.011-2.313 0.005c-0.346 0.007-0.385-0.174-0.381-0.446 0.006-0.263-0.002-0.485 0.377-0.483zM1.888 14.919c1.519 0.011 3.039 0.002 4.556 0.004 0.376 0 0.416 0.055 0.416 0.477 0 0.415-0.039 0.465-0.427 0.466-0.759 0.004-1.519 0.002-2.278 0.002s-1.519-0.011-2.278 0.005c-0.39 0.009-0.394-0.218-0.403-0.501-0.009-0.304 0.072-0.456 0.415-0.454z"></path>
<path fill="#001e42" style="fill: var(--color3, #001e42)" d="M19.841 7.985c-0.888 0-1.776-0.002-2.665 0.002-0.3 0.002-0.379 0.082-0.383 0.377s-0.002 0.591 0 0.886c0 0.408 0.055 0.463 0.476 0.463 0.094 0 0.189 0 0.281 0 0.322 0 0.644 0.002 0.966 0.002h0.011v1.579c-0.105 0.038-0.202 0.097-0.283 0.177-0.152 0.148-0.235 0.346-0.235 0.558 0 0.388 0.289 0.71 0.663 0.774l0.472 0.723 0.47-0.3-0.357-0.547c0.039-0.027 0.078-0.057 0.113-0.091 0.152-0.148 0.235-0.346 0.235-0.558 0-0.337-0.216-0.622-0.516-0.734v-1.581c0.205 0 0.409 0 0.614-0.004 0.037 0 0.070 0.002 0.1 0.005h1.962c0.080 0 0.157 0 0.237 0-0.194-0.628-0.511-1.215-0.938-1.729-0.407 0-0.814-0.002-1.221-0.002zM17.795 9.209c-0.189-0.007-0.348-0.174-0.348-0.362s0.163-0.351 0.353-0.357c0.207-0.005 0.37 0.155 0.368 0.362-0.002 0.205-0.168 0.366-0.374 0.357zM18.979 12.198c-0.046 0.046-0.107 0.070-0.17 0.070-0.133 0-0.242-0.108-0.242-0.238 0-0.064 0.026-0.124 0.070-0.17 0.046-0.046 0.107-0.070 0.17-0.070 0.133 0 0.242 0.108 0.242 0.24 0.002 0.064-0.024 0.124-0.070 0.168zM19.092 9.207c-0.211 0.004-0.37-0.157-0.365-0.37 0.006-0.199 0.161-0.348 0.363-0.346s0.355 0.157 0.355 0.357c0 0.199-0.155 0.357-0.353 0.359zM20.374 9.209c-0.2 0.005-0.381-0.165-0.381-0.359-0.002-0.187 0.163-0.351 0.355-0.359 0.207-0.007 0.378 0.155 0.378 0.359-0.002 0.192-0.159 0.353-0.352 0.359z"></path>
<path fill="#001e42" style="fill: var(--color3, #001e42)" d="M17.293 6.774c0 0.412 0.113 0.525 0.535 0.525 0.848 0 1.695 0 2.544 0-0.37-0.306-0.779-0.556-1.212-0.746-0.176 0-0.35 0-0.526 0-0.333 0-0.524-0.106-0.6-0.346-0.242-0.046-0.49-0.073-0.74-0.084-0.002 0.218-0.002 0.434-0.002 0.651z"></path>
<path fill="#001e42" style="fill: var(--color3, #001e42)" d="M18.12 2.304c0.096-0.113 0.248-0.17 0.472-0.172 0.872-0.007 1.741-0.002 2.613-0.002v-0.002c0.836 0 1.673-0.002 2.511 0 0.531 0.002 0.714 0.177 0.714 0.693 0.002 1.014 0.002 2.025 0 3.039 0 0.035-0.004 0.066-0.006 0.099 0.248 0.34 0.474 0.697 0.67 1.068 0.018-0.075 0.026-0.168 0.026-0.285 0-1.604 0-3.207 0-4.812 0-0.461-0.1-0.56-0.576-0.56-1.11 0-2.221 0-3.331 0-1.12 0-2.237 0-3.357 0-0.463 0-0.564 0.097-0.564 0.542 0 0.112 0 0.223 0 0.337 0.278 0.006 0.553 0.024 0.827 0.055z"></path>
<path fill="#001e42" style="fill: var(--color3, #001e42)" d="M22.834 5.515c-3.181-3.145-8.355-3.145-11.536 0s-3.179 8.26 0.002 11.405c2.824 2.792 7.217 3.103 10.394 0.937l7.528 8.211c0.674 0.666 1.862 0.571 2.654-0.21 0.792-0.783 0.888-1.958 0.213-2.623l-8.353-7.375c2.243-3.145 1.943-7.532-0.901-10.344zM21.372 15.473c-2.374 2.347-6.236 2.347-8.61 0s-2.374-6.165 0-8.513 6.236-2.347 8.61 0c2.374 2.349 2.374 6.167 0 8.513z"></path>
</symbol>
<symbol id="icon-Group-74" viewBox="0 0 35 32">
<path fill="#fff" style="fill: var(--color1, #fff)" d="M0 0h34.743v32h-34.743v-32z"></path>
<path fill="#00feff" style="fill: var(--color2, #00feff)" d="M5.943 7.771h28.8v24.229h-28.8v-24.229z"></path>
<path fill="#001e42" style="fill: var(--color3, #001e42)" d="M27.14 13.047c0.538 0 1.049-0.001 1.56 0 0.451 0.001 0.61 0.158 0.614 0.608 0.003 0.34 0.007 0.679-0.002 1.018-0.009 0.32-0.165 0.504-0.482 0.506-1.411 0.011-2.823 0.014-4.234-0.008-0.147-0.002-0.29-0.185-0.437-0.281-0.096-0.063-0.196-0.172-0.295-0.173-1.422-0.012-2.843-0.013-4.265-0.005-0.108 0.001-0.27 0.070-0.314 0.156-0.132 0.257-0.336 0.322-0.594 0.321-0.448-0.003-0.898 0.013-1.345-0.005-0.365-0.014-0.291 0.233-0.302 0.442-0.012 0.221 0.012 0.38 0.308 0.368 0.513-0.020 1.028 0.002 1.542-0.009 0.233-0.005 0.385 0.077 0.508 0.28 0.158 0.261 0.366 0.491 0.526 0.751 0.075 0.123 0.127 0.283 0.128 0.426 0.007 4.204 0.007 8.407 0.005 12.611 0 0.435-0.138 0.569-0.574 0.569-2.002 0.003-4.004 0.003-6.007 0.001-0.415-0.001-0.562-0.141-0.562-0.549-0.003-4.215-0.004-8.429 0.008-12.644 0.001-0.171 0.131-0.349 0.223-0.511 0.108-0.189 0.264-0.352 0.356-0.547 0.149-0.315 0.378-0.409 0.713-0.391 0.48 0.024 0.963-0.007 1.444 0.010 0.344 0.012 0.283-0.219 0.289-0.42 0.007-0.205 0.020-0.403-0.289-0.387-0.328 0.016-0.656 0.003-0.985 0.002-0.247-0.001-0.44-0.071-0.554-0.325-0.035-0.078-0.184-0.15-0.281-0.15-1.565-0.009-3.129-0.010-4.693 0.001-0.102 0.001-0.204 0.111-0.306 0.171-0.167 0.1-0.331 0.285-0.499 0.288-1.378 0.023-2.757 0.014-4.136 0.011-0.318-0.001-0.494-0.173-0.503-0.485-0.012-0.393-0.014-0.789 0.004-1.182 0.015-0.322 0.182-0.466 0.511-0.47 0.459-0.006 0.92-0.011 1.378 0.001 0.227 0.006 0.326-0.078 0.308-0.303-0.005-0.065-0.006-0.132 0.001-0.197 0.031-0.267-0.075-0.365-0.352-0.361-0.919 0.014-1.838 0.005-2.757 0.005-0.12 0-0.241 0-0.361 0-0.538-0.001-0.608-0.070-0.609-0.601-0.001-0.383-0.003-0.767 0.001-1.149 0.004-0.381 0.106-0.487 0.49-0.489 1.138-0.004 2.276-0.002 3.414-0.002 2.276 0 4.552-0.001 6.827 0.003 0.5 0.001 0.562 0.070 0.563 0.576 0.001 0.394 0.003 0.788-0.003 1.182-0.006 0.388-0.099 0.479-0.494 0.479-1.729 0.002-3.458-0.001-5.186 0.005-0.143 0.001-0.396 0.028-0.408 0.085-0.048 0.217-0.030 0.452-0.005 0.677 0.004 0.037 0.163 0.081 0.251 0.083 0.361 0.010 0.724-0.017 1.082 0.015 0.154 0.014 0.362 0.102 0.431 0.222 0.114 0.2 0.245 0.244 0.448 0.243 1.51-0.004 3.020-0.004 4.529 0.001 0.19 0.001 0.312-0.037 0.415-0.231 0.065-0.122 0.275-0.233 0.421-0.235 1.4-0.017 2.801-0.017 4.201 0.001 0.145 0.002 0.349 0.118 0.419 0.242 0.109 0.19 0.238 0.223 0.424 0.223 1.4-0.005 2.801-0.001 4.201-0.016 0.108-0.001 0.214-0.125 0.323-0.188 0.16-0.092 0.314-0.239 0.484-0.258 0.356-0.040 0.721-0.022 1.082-0.010 0.217 0.007 0.301-0.081 0.286-0.289-0.005-0.065-0.007-0.132 0.001-0.197 0.036-0.283-0.075-0.378-0.368-0.376-1.75 0.012-3.501 0.007-5.251 0.006-0.551 0-0.608-0.056-0.61-0.594-0.001-0.361-0.002-0.723 0.001-1.084 0.003-0.492 0.075-0.562 0.579-0.562 3.074-0.001 6.149-0.001 9.224-0.001 0.35 0 0.7 0.003 1.050 0.001 0.297-0.001 0.442 0.137 0.438 0.441-0.007 0.449 0.002 0.898-0.003 1.346-0.003 0.338-0.114 0.449-0.457 0.451-1.017 0.004-2.035 0.001-3.053 0.002-0.464 0-0.465 0.001-0.459 0.466 0.001 0.119 0.015 0.236 0.026 0.388zM16.478 21.027c0 0.001 0 0.001 0 0.001 0.689 0 1.378 0.002 2.067-0.001 0.413-0.001 0.532-0.114 0.535-0.521 0.005-0.689 0.005-1.379 0.001-2.068-0.003-0.39-0.125-0.516-0.511-0.517-1.389-0.004-2.778-0.003-4.166 0.001-0.387 0.001-0.499 0.122-0.501 0.521-0.004 0.689-0.005 1.379 0 2.068 0.003 0.39 0.123 0.51 0.509 0.512 0.688 0.004 1.377 0.002 2.066 0.002zM16.476 25.343c0.731 0 1.463 0.003 2.194-0.001 0.373-0.002 0.412-0.050 0.412-0.454 0-0.412-0.038-0.464-0.4-0.466-1.463-0.003-2.925 0.006-4.388-0.005-0.33-0.002-0.408 0.146-0.399 0.441 0.008 0.277 0.012 0.497 0.388 0.489 0.73-0.015 1.462-0.004 2.193-0.004zM16.476 27.385c0.731 0 1.462 0.003 2.193-0.001 0.37-0.002 0.41-0.053 0.411-0.457 0.001-0.416-0.035-0.464-0.4-0.465-1.462-0.003-2.925-0.003-4.388 0-0.366 0.001-0.396 0.043-0.394 0.47 0.002 0.401 0.044 0.453 0.415 0.454 0.721 0.002 1.441 0 2.162 0zM16.491 23.301c0.742 0 1.485-0.010 2.228 0.005 0.334 0.007 0.367-0.177 0.367-0.438 0-0.265-0.012-0.47-0.37-0.468-1.485 0.011-2.97 0.011-4.455 0-0.366-0.003-0.359 0.214-0.364 0.473-0.005 0.265 0.033 0.441 0.366 0.435 0.742-0.016 1.485-0.005 2.228-0.006zM22.345 10.499c-0.459 0-0.918 0.001-1.377 0-0.24-0.001-0.368 0.11-0.364 0.358 0.002 0.109-0.002 0.219-0.001 0.328 0.005 0.391 0.062 0.449 0.465 0.451 0.787 0.003 1.574 0.001 2.361 0.001 0.6 0 0.62-0.022 0.615-0.633-0.001-0.044-0.001-0.087-0.001-0.131 0.002-0.259-0.128-0.377-0.386-0.374-0.437 0.005-0.874 0.002-1.311 0.002zM10.606 11.636c0.415 0 0.83 0.002 1.244-0.001 0.417-0.003 0.461-0.050 0.464-0.479 0.001-0.066-0.006-0.131 0.001-0.196 0.031-0.319-0.104-0.46-0.431-0.457-0.786 0.007-1.572-0.003-2.358-0.005-0.631-0.001-0.657 0.026-0.647 0.671 0.001 0.033 0.001 0.066 0.001 0.099-0.003 0.259 0.119 0.376 0.382 0.37 0.448-0.009 0.895-0.003 1.343-0.002zM16.524 28.123c-0.528-0.018-0.964 0.374-0.988 0.889-0.025 0.535 0.385 0.979 0.919 0.994 0.539 0.016 0.979-0.395 0.989-0.925 0.010-0.52-0.394-0.941-0.92-0.958zM6.418 11.54c0.246-0.007 0.448-0.217 0.45-0.466 0.001-0.264-0.219-0.475-0.483-0.465-0.247 0.009-0.458 0.225-0.456 0.466 0.002 0.253 0.233 0.473 0.49 0.466zM26.987 11.064c-0.002-0.257-0.223-0.457-0.496-0.45-0.247 0.007-0.445 0.22-0.437 0.471s0.213 0.453 0.459 0.454c0.259 0.002 0.476-0.215 0.474-0.475zM29.784 11.541c0.255 0.001 0.477-0.225 0.471-0.479-0.006-0.245-0.215-0.449-0.463-0.453-0.247-0.003-0.459 0.198-0.469 0.445-0.011 0.261 0.202 0.485 0.461 0.487zM3.591 11.077c0.003-0.268-0.206-0.475-0.472-0.469-0.245 0.006-0.454 0.218-0.454 0.462 0.001 0.246 0.205 0.462 0.447 0.471 0.263 0.011 0.476-0.197 0.478-0.464zM5.228 11.072c0.001-0.259-0.196-0.46-0.454-0.463-0.259-0.003-0.459 0.19-0.466 0.449-0.007 0.277 0.196 0.485 0.467 0.481 0.254-0.005 0.452-0.208 0.453-0.467zM28.614 11.091c0.008-0.26-0.178-0.465-0.436-0.481-0.265-0.017-0.484 0.193-0.484 0.466-0.001 0.255 0.2 0.462 0.453 0.465 0.259 0.003 0.459-0.191 0.468-0.449z"></path>
<path fill="#001e42" style="fill: var(--color3, #001e42)" d="M7.496 1.372c1.422 0 2.845-0.001 4.267 0 0.611 0.001 0.738 0.127 0.738 0.726-0.001 2.080 0 4.16-0.001 6.241 0 0.585-0.13 0.723-0.71 0.723-2.878 0.003-5.756 0.003-8.634 0.001-0.54 0-0.686-0.146-0.686-0.68-0.002-2.102-0.002-4.204-0.001-6.307 0-0.577 0.132-0.703 0.725-0.703 1.433-0.001 2.867 0 4.301 0zM7.48 2.355c0 0.001 0 0.002 0 0.003-1.116 0-2.232-0.006-3.348 0.003-0.528 0.004-0.758 0.241-0.761 0.771-0.006 1.379-0.006 2.759-0.001 4.139 0.002 0.579 0.247 0.823 0.818 0.824 2.178 0.003 4.355 0.003 6.533 0 0.646-0.001 0.891-0.25 0.893-0.898 0.003-1.314 0.003-2.627-0.001-3.942-0.001-0.67-0.235-0.898-0.916-0.899-1.072-0.003-2.145-0.001-3.217-0.001z"></path>
<path fill="#001e42" style="fill: var(--color3, #001e42)" d="M25.486 1.372c1.432 0 2.865-0.001 4.297 0.001 0.516 0.001 0.672 0.148 0.673 0.661 0.005 2.122 0.005 4.244 0.001 6.365-0.001 0.51-0.161 0.664-0.673 0.665-2.887 0.001-5.773 0.001-8.66-0.001-0.573-0.001-0.708-0.143-0.708-0.727-0.001-2.079-0.001-4.157 0-6.236 0.001-0.597 0.134-0.726 0.739-0.727 1.444-0.002 2.887-0.001 4.331-0.001zM25.441 8.095c1.072 0 2.145 0.001 3.217-0.001 0.66-0.001 0.902-0.23 0.905-0.881 0.006-1.336 0.006-2.671 0-4.007-0.003-0.619-0.241-0.85-0.862-0.851-2.178-0.002-4.355-0.002-6.533 0.001-0.614 0.001-0.853 0.24-0.855 0.857-0.003 1.336-0.003 2.671 0 4.007 0.001 0.632 0.243 0.872 0.878 0.874 1.083 0.004 2.167 0.001 3.25 0.001z"></path>
</symbol>
<symbol id="icon-Group-72" viewBox="0 0 35 32">
<path fill="#fff" style="fill: var(--color1, #fff)" d="M0 0h34.743v32h-34.743v-32z"></path>
<path fill="#00feff" style="fill: var(--color2, #00feff)" d="M5.943 7.771h28.8v24.229h-28.8v-24.229z"></path>
<path fill="#001e42" style="fill: var(--color3, #001e42)" d="M13.194 25.534l-0.657-0.293c-1.118-0.499-2.035-1.368-2.598-2.462l-0.229-0.445c-0.036-0.070-0.070-0.143-0.103-0.215-0.646 0-1.294-0.001-1.94-0.001-1.274 0-2.547 0.005-3.821-0.001-0.656-0.004-0.731-0.093-0.734-0.808-0.003-0.757 0.050-0.833 0.696-0.836 1.79-0.004 3.581-0.004 5.371-0.002-0.064-0.638-0.024-1.315 0.132-1.985-0.549 0-1.096-0.001-1.645-0.001-1.293 0-2.586-0.020-3.879 0.008-0.665 0.014-0.672-0.376-0.686-0.869-0.015-0.526 0.122-0.79 0.705-0.785 2.051 0.014 4.103 0.008 6.154 0.007 0.319-0.548 0.737-1.066 1.268-1.524 0.204-0.175 0.419-0.337 0.643-0.481-0.070 0.014-0.149 0.022-0.242 0.020-1.312-0.026-2.626-0.008-3.938-0.008s-2.626-0.019-3.938 0.009c-0.589 0.013-0.656-0.303-0.647-0.774 0.008-0.459-0.005-0.846 0.643-0.841 2.626 0.020 5.25 0.019 7.876 0 0.633-0.005 0.654 0.361 0.654 0.833 0 0.242-0.016 0.445-0.115 0.584 0.57-0.324 1.19-0.55 1.838-0.671-0.001-1.878-0.003-3.757-0.006-5.635-0.353-0.366-0.694-1.531-0.843-2.096-0.053-0.201-0.033-0.415 0.062-0.601 0.178-0.349 0.485-0.923 0.707-1.151 0.024-0.025 0.048-0.049 0.072-0.074 0-0.002 0-0.005 0-0.007 0-0.255-0.092-0.54-0.226-0.758-0.283-0.462-0.651-0.872-0.929-1.336-0.218-0.362-0.486-0.507-0.898-0.499-0.908 0.018-1.819-0.020-2.727 0.015l-2.985-0.001c-0.85-0.029-1.703 0.026-2.553-0.018-0.593-0.030-0.998 0.137-1.261 0.696-0.164 0.347-0.44 0.637-0.63 0.973-0.164 0.289-0.393 0.605-0.395 0.909-0.022 7.499-0.020 14.996-0.015 22.495 0 0.726 0.259 0.976 0.993 0.977 3.54 0.005 7.079 0.004 10.619-0.002 0.77-0.001 1.015-0.24 1.015-1.013 0-0.368 0-0.735 0-1.103-0.277-0.056-0.546-0.132-0.808-0.23zM3.115 6.212c0.005-0.71 0.202-0.926 0.885-0.928 2.455-0.009 4.91-0.009 7.365-0.002 0.683 0.002 0.898 0.226 0.903 0.92 0.010 1.226 0.009 2.452 0 3.679-0.006 0.725-0.215 0.923-0.946 0.927-1.218 0.005-2.435 0.001-3.654 0.001 0-0.001 0-0.001 0-0.002-1.218 0-2.435 0.005-3.654-0.001-0.682-0.004-0.896-0.217-0.9-0.912-0.008-1.228-0.007-2.454 0-3.681zM7.631 26.78c-0.944-0.028-1.67-0.817-1.625-1.769 0.042-0.915 0.813-1.614 1.747-1.581 0.931 0.032 1.645 0.781 1.627 1.704-0.020 0.943-0.797 1.676-1.749 1.646z"></path>
<path fill="#001e42" style="fill: var(--color3, #001e42)" d="M11.359 21.473c-0.643-1.25-0.476-3.391 1.079-4.733 1.515-1.306 3.815-1.309 5.321 0.005 1.547 1.349 1.891 3.617 0.806 5.337-1.156 1.832-3.294 2.239-4.719 1.701 0.052-0.061 0.095-0.118 0.144-0.168 0.625-0.631 1.252-1.261 1.876-1.892 0.369-0.373 0.369-0.701-0.001-1.076-0.446-0.451-0.893-0.902-1.344-1.349-0.325-0.323-0.668-0.321-0.996 0.005-0.665 0.664-1.325 1.331-1.988 1.997-0.052 0.054-0.108 0.104-0.18 0.173z"></path>
<path fill="#001e42" style="fill: var(--color3, #001e42)" d="M23.616 6.776c-1.521 1.526-3.005 3.017-4.527 4.545 0.494 0.171 0.944 0.325 1.395 0.484 0.459 0.161 0.774 0.473 0.921 0.943 0.103 0.331 0.071 0.646-0.181 0.9-0.254 0.256-0.584 0.291-0.897 0.171-0.985-0.376-1.969-0.758-2.936-1.179-0.466-0.203-0.737-0.588-0.745-1.142-0.016-1.070-0.055-2.14-0.099-3.21-0.013-0.323 0.084-0.576 0.307-0.8 1.041-1.042 2.075-2.092 3.115-3.134 0.371-0.372 0.871-0.33 1.322 0.113 0.53 0.522 1.050 1.058 1.577 1.583 0.232 0.235 0.472 0.46 0.747 0.727z"></path>
<path fill="#001e42" style="fill: var(--color3, #001e42)" d="M22.119 12.132c-0.273-0.547-0.739-0.954-1.424-1.211 0.411-0.399 0.79-0.757 1.159-1.128 1.313-1.319 2.619-2.646 3.934-3.961 0.711-0.712 1.561-0.938 2.506-0.577 0.934 0.356 1.427 1.081 1.497 2.078 0.037 0.532-0.095 1.045-0.437 1.455-0.377 0.453-0.804 0.864-1.261 1.349-0.245-0.271-0.45-0.532-0.688-0.757-0.577-0.547-1.399-0.687-2.034-0.345-0.386 0.209-0.675 0.527-0.886 0.917-0.048 0.088-0.128 0.175-0.213 0.223-0.42 0.23-0.744 0.55-0.969 0.975-0.035 0.065-0.072 0.137-0.128 0.18-0.342 0.266-0.689 0.526-1.056 0.803z"></path>
<path fill="#001e42" style="fill: var(--color3, #001e42)" d="M22.907 13.352c-0.187-0.74 0.429-1.371 1.196-1.181-0.089-0.359-0.048-0.664 0.219-0.941 0.27-0.279 0.574-0.324 0.942-0.243 0-0.064 0.008-0.105-0.001-0.141-0.124-0.463 0.147-0.77 0.485-0.998 0.274-0.185 0.69-0.146 0.986 0.133 0.567 0.533 1.117 1.084 1.65 1.652 0.281 0.299 0.333 0.75 0.147 1.015-0.283 0.405-0.545 0.602-1.016 0.49-0.030-0.007-0.063-0.001-0.095-0.001 0.031 0.912-0.217 1.164-1.177 1.207 0.030 0.89-0.364 1.285-1.185 1.166 0 0.049-0.008 0.097 0.001 0.14 0.104 0.458-0.136 0.758-0.479 0.978-0.342 0.22-0.714 0.139-0.986-0.113-0.582-0.54-1.144-1.105-1.681-1.691-0.253-0.276-0.338-0.653-0.12-0.993 0.232-0.363 0.53-0.617 1.015-0.48 0.024 0.007 0.051 0.001 0.097 0.001z"></path>
<path fill="#001e42" style="fill: var(--color3, #001e42)" d="M21.994 16.212c-0.738 0.741-1.464 1.47-2.207 2.214-0.538-1.599-1.61-2.692-3.244-3.271 0.175-0.181 0.329-0.342 0.486-0.501 0.225-0.229 0.458-0.451 0.676-0.687 0.114-0.124 0.213-0.148 0.372-0.082 0.584 0.243 1.167 0.487 1.764 0.698 0.281 0.099 0.588 0.119 0.882 0.182 0.071 0.015 0.176 0.048 0.196 0.099 0.182 0.49 0.565 0.816 0.913 1.172 0.057 0.058 0.113 0.122 0.161 0.175z"></path>
<path fill="#001e42" style="fill: var(--color3, #001e42)" d="M14.979 6.316c0.087-0.167 0.14-0.366 0.267-0.494 1.022-1.048 2.058-2.082 3.087-3.122 0.168-0.169 0.371-0.226 0.601-0.204 0.509 0.048 0.978 0.517 0.978 1.033 0 0.185-0.075 0.418-0.2 0.547-1.023 1.059-2.066 2.098-3.104 3.142-0.182 0.183-0.403 0.236-0.651 0.189-0.519-0.099-0.922-0.562-0.979-1.090z"></path>
</symbol>
<symbol id="icon-Group-70" viewBox="0 0 35 32">
<path fill="#fff" style="fill: var(--color1, #fff)" d="M0 0h34.743v32h-34.743v-32z"></path>
<path fill="#00feff" style="fill: var(--color2, #00feff)" d="M5.943 7.771h28.8v24.229h-28.8v-24.229z"></path>
<path fill="#001e42" style="fill: var(--color3, #001e42)" d="M14.023 26.123c-3.917 0-7.833 0.001-11.75-0.001-0.897-0-1.636-0.577-1.786-1.382-0.193-1.038 0.595-1.981 1.693-2.011 0.502-0.014 1.005-0.003 1.508-0.003 7.355 0 14.71 0 22.064-0 0.697 0 1.269 0.247 1.636 0.846 0.673 1.101-0.119 2.487-1.446 2.545-0.239 0.010-0.479 0.003-0.718 0.003-3.733 0-7.467 0-11.2 0 0 0.001 0 0.002 0 0.003zM21.368 23.418c-0.572-0.002-1.036 0.457-1.033 1.021 0.003 0.552 0.464 1.007 1.023 1.011 0.565 0.003 1.041-0.468 1.036-1.025-0.005-0.553-0.466-1.005-1.026-1.007zM24.913 24.438c0.003-0.559-0.444-1.012-1.007-1.020-0.572-0.007-1.043 0.448-1.045 1.010-0.001 0.564 0.465 1.025 1.034 1.022 0.56-0.003 1.014-0.455 1.018-1.012z"></path>
<path fill="#001e42" style="fill: var(--color3, #001e42)" d="M10.448 18.988c-0.608-1.161-0.45-3.147 1.020-4.392 1.433-1.212 3.608-1.215 5.032 0.004 1.462 1.252 1.788 3.357 0.762 4.953-1.093 1.7-3.115 2.078-4.463 1.579 0.049-0.057 0.089-0.109 0.136-0.156 0.591-0.586 1.184-1.17 1.774-1.756 0.349-0.346 0.349-0.65-0.001-0.998-0.422-0.419-0.844-0.837-1.27-1.251-0.307-0.299-0.632-0.299-0.942 0.005-0.628 0.616-1.253 1.235-1.879 1.853-0.050 0.050-0.103 0.097-0.171 0.16z"></path>
<path fill="#001e42" style="fill: var(--color3, #001e42)" d="M22.040 5.349c-1.438 1.417-2.842 2.8-4.282 4.218 0.467 0.159 0.893 0.302 1.318 0.448 0.435 0.15 0.732 0.439 0.871 0.875 0.098 0.307 0.067 0.599-0.171 0.835-0.24 0.238-0.551 0.27-0.848 0.159-0.931-0.35-1.862-0.704-2.776-1.095-0.441-0.189-0.696-0.545-0.705-1.060-0.015-0.993-0.051-1.986-0.093-2.979-0.012-0.299 0.079-0.535 0.29-0.743 0.984-0.968 1.962-1.941 2.946-2.908 0.351-0.345 0.824-0.306 1.25 0.106 0.502 0.485 0.993 0.981 1.491 1.47 0.222 0.218 0.448 0.427 0.708 0.674z"></path>
<path fill="#001e42" style="fill: var(--color3, #001e42)" d="M12.798 4.595c0.063 0.419 0.119 0.795 0.179 1.197-0.071 0.003-0.17 0.011-0.27 0.011-2.512 0-5.025 0-7.538 0-0.917 0-1.346 0.426-1.346 1.332 0 4.967 0 9.934 0.001 14.901 0 0.102 0 0.203 0 0.324-0.417 0-0.818 0-1.247 0 0-0.101 0-0.193 0-0.285 0-5.006-0-10.013 0-15.019 0-1.458 1.023-2.476 2.493-2.476 2.513-0.001 5.025 0.003 7.538 0.006 0.078-0 0.156 0.007 0.191 0.009z"></path>
<path fill="#001e42" style="fill: var(--color3, #001e42)" d="M20.625 10.319c-0.258-0.507-0.699-0.885-1.346-1.124 0.388-0.37 0.748-0.703 1.096-1.047 1.242-1.224 2.477-2.455 3.721-3.677 0.673-0.66 1.475-0.871 2.37-0.536 0.884 0.331 1.35 1.003 1.415 1.929 0.035 0.494-0.090 0.969-0.413 1.351-0.357 0.421-0.76 0.802-1.192 1.251-0.231-0.252-0.426-0.493-0.651-0.703-0.545-0.508-1.324-0.638-1.924-0.319-0.366 0.194-0.639 0.489-0.839 0.852-0.045 0.082-0.121 0.163-0.202 0.207-0.397 0.213-0.703 0.51-0.916 0.905-0.033 0.061-0.068 0.127-0.121 0.168-0.324 0.247-0.651 0.487-0.998 0.744z"></path>
<path fill="#001e42" style="fill: var(--color3, #001e42)" d="M21.369 11.451c-0.176-0.687 0.406-1.273 1.131-1.097-0.085-0.333-0.045-0.616 0.207-0.872 0.256-0.259 0.543-0.3 0.891-0.226 0-0.059 0.008-0.097-0.001-0.131-0.118-0.43 0.139-0.715 0.459-0.926 0.259-0.171 0.653-0.135 0.933 0.123 0.536 0.494 1.057 1.006 1.561 1.533 0.266 0.278 0.315 0.696 0.14 0.942-0.268 0.376-0.516 0.558-0.961 0.455-0.028-0.007-0.059-0.001-0.090-0.001 0.030 0.846-0.205 1.080-1.113 1.12 0.029 0.826-0.345 1.193-1.12 1.082 0 0.045-0.008 0.090 0.001 0.131 0.099 0.425-0.128 0.704-0.453 0.908-0.324 0.203-0.675 0.13-0.933-0.105-0.551-0.501-1.082-1.026-1.59-1.57-0.239-0.256-0.319-0.606-0.113-0.922 0.219-0.337 0.502-0.572 0.96-0.446 0.022 0.006 0.047 0.001 0.091 0.001z"></path>
<path fill="#001e42" style="fill: var(--color3, #001e42)" d="M25.495 13.496c0 2.903 0 5.872 0 8.862-0.403 0-0.802 0-1.222 0-0.004-0.091-0.011-0.175-0.011-0.26-0-2.404 0.001-4.808-0.003-7.212-0-0.264 0.108-0.414 0.329-0.572 0.337-0.239 0.618-0.552 0.908-0.819z"></path>
<path fill="#001e42" style="fill: var(--color3, #001e42)" d="M20.506 14.106c-0.698 0.688-1.385 1.364-2.087 2.055-0.509-1.484-1.523-2.498-3.068-3.036 0.166-0.168 0.312-0.318 0.46-0.466 0.213-0.212 0.434-0.418 0.639-0.638 0.107-0.114 0.201-0.138 0.352-0.076 0.551 0.226 1.104 0.452 1.668 0.647 0.265 0.092 0.556 0.11 0.834 0.169 0.067 0.014 0.167 0.044 0.185 0.092 0.173 0.454 0.534 0.757 0.863 1.088 0.055 0.056 0.107 0.114 0.153 0.164z"></path>
<path fill="#001e42" style="fill: var(--color3, #001e42)" d="M13.873 4.921c0.082-0.155 0.133-0.34 0.252-0.459 0.966-0.973 1.946-1.932 2.92-2.897 0.159-0.158 0.35-0.21 0.568-0.19 0.482 0.044 0.925 0.48 0.925 0.959 0 0.172-0.071 0.388-0.189 0.508-0.968 0.982-1.954 1.946-2.935 2.916-0.172 0.17-0.38 0.219-0.616 0.175-0.491-0.092-0.873-0.521-0.926-1.011z"></path>
<path fill="#001e42" style="fill: var(--color3, #001e42)" d="M10.185 11.073l-4.024-4.073-0.004 5.767 1.658-0.697 1.006 2.082 0.946-0.447-0.986-2.041 1.404-0.59z"></path>
</symbol>
 
</defs>
</svg>
