<svg aria-hidden="true" style="position: absolute; width: 0; height: 0; overflow: hidden;" version="1.1" xmlns="http://www.w3.org/2000/svg" xmlns:xlink="http://www.w3.org/1999/xlink">
<defs>
<symbol id="icon-Vector-1" viewBox="0 0 45 32">
<path stroke-linejoin="miter" stroke-linecap="butt" stroke-miterlimit="4" stroke-width="4.2667" d="M0 16h40.533M40.533 16l-13.867-13.867M40.533 16l-13.867 13.867"></path>
</symbol>
<symbol id="icon-Group-2" viewBox="0 0 96 32">
<path fill="#fff" style="fill: var(--color1, #fff)" d="M0 21.501v-20.909h7.15v20.909h-7.15z"></path>
<path fill="#fff" style="fill: var(--color1, #fff)" d="M21.602 6.526v14.972h-7.090v-14.972h-5.186v-5.934h17.458v5.938l-5.182-0.003z"></path>
<path fill="#fff" style="fill: var(--color1, #fff)" d="M25.205 15.623v-5.080h8.223v5.080h-8.223z"></path>
<path fill="#00feff" style="fill: var(--color2, #00feff)" d="M42.844 22.089c-1.669 0-3.292-0.286-4.871-0.857s-2.916-1.339-4.009-2.303l4.321-4.665c0.516 0.572 1.19 1.053 2.025 1.449s1.669 0.591 2.504 0.591c1.053 0 1.579-0.326 1.579-0.973 0-0.372-0.228-0.678-0.684-0.917-0.456-0.236-1.472-0.611-3.040-1.123-1.689-0.552-3.020-1.289-3.992-2.216-0.972-0.924-1.462-2.226-1.462-3.897 0-1.239 0.261-2.339 0.791-3.293 0.526-0.954 1.227-1.708 2.102-2.259s1.814-0.96 2.816-1.226c1.002-0.266 2.052-0.399 3.144-0.399 1.411 0 2.836 0.276 4.274 0.827 1.441 0.552 2.695 1.309 3.768 2.273l-4.408 4.459c-0.456-0.552-1.029-0.99-1.713-1.316s-1.327-0.488-1.921-0.488c-1.153 0-1.73 0.316-1.73 0.944 0 0.296 0.137 0.518 0.416 0.665s0.835 0.359 1.669 0.635c0.577 0.196 1.032 0.349 1.371 0.458s0.791 0.279 1.354 0.518c0.566 0.236 1.022 0.462 1.371 0.678s0.734 0.502 1.163 0.857c0.426 0.355 0.761 0.718 0.999 1.093s0.443 0.821 0.61 1.342c0.168 0.522 0.251 1.077 0.251 1.668 0 2.362-0.865 4.2-2.591 5.509-1.726 1.312-3.764 1.967-6.108 1.967z"></path>
<path fill="#00feff" style="fill: var(--color2, #00feff)" d="M63.373 14.766h-1.998v6.735h-7.063v-20.909h9.058c1.153 0 2.216 0.12 3.188 0.356s1.881 0.611 2.725 1.123c0.845 0.512 1.508 1.239 1.998 2.186 0.486 0.944 0.731 2.067 0.731 3.366 0 1.239-0.245 2.332-0.731 3.279-0.486 0.944-1.143 1.694-1.968 2.243-0.825 0.552-1.74 0.96-2.742 1.226-0.999 0.262-2.065 0.395-3.198 0.395zM62.867 6.054h-1.488v3.366h1.488c0.597 0 1.103-0.146 1.519-0.442s0.627-0.728 0.627-1.299c0-1.083-0.714-1.625-2.145-1.625z"></path>
<path fill="#00feff" style="fill: var(--color2, #00feff)" d="M87.298 21.501l-5.631-8.326h-0.060v8.326h-6.913v-20.909h6.882v7.708h0.060l5.632-7.708h8.344l-7.925 9.569 8.313 11.34h-8.702z"></path>
<path fill="#00feff" style="fill: var(--color2, #00feff)" d="M2.293 27.345l-0.379 0.412c-0.060-0.083-0.147-0.149-0.261-0.203s-0.225-0.076-0.339-0.076c-0.151 0-0.285 0.037-0.402 0.113-0.117 0.073-0.174 0.186-0.174 0.332 0 0.073 0.013 0.136 0.040 0.186s0.074 0.096 0.137 0.136c0.067 0.040 0.127 0.070 0.188 0.093 0.057 0.020 0.144 0.050 0.258 0.086 0.107 0.033 0.198 0.063 0.265 0.086 0.070 0.023 0.151 0.063 0.248 0.116s0.174 0.11 0.231 0.173c0.057 0.063 0.107 0.14 0.147 0.239s0.064 0.209 0.064 0.332c0 0.332-0.114 0.588-0.339 0.768-0.228 0.179-0.51 0.269-0.851 0.269-0.218 0-0.429-0.040-0.63-0.12-0.204-0.086-0.369-0.199-0.496-0.349l0.416-0.385c0.080 0.106 0.188 0.193 0.318 0.259 0.134 0.066 0.265 0.1 0.396 0.1 0.158 0 0.295-0.040 0.412-0.12s0.178-0.199 0.178-0.362c0-0.056-0.007-0.103-0.023-0.149-0.010-0.043-0.040-0.083-0.080-0.12s-0.077-0.066-0.107-0.090c-0.034-0.023-0.087-0.046-0.168-0.076-0.077-0.030-0.134-0.050-0.168-0.063s-0.101-0.033-0.204-0.063c-0.117-0.037-0.218-0.073-0.302-0.113s-0.168-0.093-0.258-0.163c-0.087-0.070-0.154-0.156-0.201-0.266s-0.070-0.236-0.070-0.379c0-0.309 0.117-0.545 0.352-0.708s0.516-0.246 0.845-0.246c0.171 0 0.345 0.030 0.516 0.090 0.174 0.060 0.322 0.146 0.442 0.259z"></path>
<path fill="#00feff" style="fill: var(--color2, #00feff)" d="M3.821 30.322v-3.243h0.583v3.243h-0.583z"></path>
<path fill="#00feff" style="fill: var(--color2, #00feff)" d="M6.047 30.322v-3.243h0.908l0.851 2.303h0.013l0.841-2.303h0.915v3.243h-0.577v-2.605h-0.010l-0.992 2.605h-0.406l-0.979-2.605h-0.010v2.605h-0.556z"></path>
<path fill="#00feff" style="fill: var(--color2, #00feff)" d="M11.223 30.322v-3.243h1.066c0.821 0 1.234 0.312 1.234 0.94 0 0.336-0.117 0.581-0.352 0.734s-0.54 0.229-0.918 0.229h-0.449v1.342h-0.58v-0.003zM11.806 28.495h0.406c0.483 0 0.724-0.159 0.724-0.475 0-0.173-0.064-0.292-0.191-0.355s-0.298-0.096-0.516-0.096h-0.426v0.927h0.003z"></path>
<path fill="#00feff" style="fill: var(--color2, #00feff)" d="M14.964 30.322v-3.243h0.583v2.728h1.391v0.512h-1.974v0.003z"></path>
<path fill="#00feff" style="fill: var(--color2, #00feff)" d="M18.249 30.322v-3.243h2.166v0.505h-1.586v0.824h1.502v0.485h-1.502v0.917h1.669v0.512h-2.249z"></path>
<path fill="#00feff" style="fill: var(--color2, #00feff)" d="M24.072 30.322v-3.243h1.066c0.821 0 1.234 0.312 1.234 0.94 0 0.336-0.117 0.581-0.352 0.734s-0.54 0.229-0.919 0.229h-0.449v1.342h-0.58v-0.003zM24.655 28.495h0.406c0.483 0 0.724-0.159 0.724-0.475 0-0.173-0.064-0.292-0.191-0.355s-0.298-0.096-0.516-0.096h-0.426v0.927h0.003z"></path>
<path fill="#00feff" style="fill: var(--color2, #00feff)" d="M27.656 28.691c0-0.512 0.164-0.924 0.493-1.233s0.747-0.462 1.26-0.462c0.516 0 0.942 0.153 1.27 0.462s0.496 0.718 0.496 1.233c0 0.505-0.164 0.914-0.496 1.233s-0.754 0.478-1.267 0.478c-0.51 0-0.929-0.159-1.257-0.478-0.332-0.316-0.5-0.728-0.5-1.233zM28.289 28.691c0 0.349 0.104 0.635 0.315 0.857 0.208 0.226 0.479 0.336 0.808 0.336 0.332 0 0.603-0.113 0.815-0.336 0.208-0.226 0.315-0.512 0.315-0.857 0-0.339-0.104-0.621-0.312-0.847s-0.479-0.339-0.815-0.339c-0.332 0-0.603 0.113-0.811 0.339-0.211 0.226-0.315 0.508-0.315 0.847z"></path>
<path fill="#00feff" style="fill: var(--color2, #00feff)" d="M33.284 30.322l-0.955-3.243h0.637l0.634 2.382h0.010l0.721-2.382h0.6l0.707 2.382h0.010l0.647-2.382h0.62l-0.955 3.243h-0.563l-0.768-2.432h-0.010l-0.768 2.432h-0.567z"></path>
<path fill="#00feff" style="fill: var(--color2, #00feff)" d="M38.225 30.322v-3.243h2.166v0.505h-1.586v0.824h1.502v0.485h-1.502v0.917h1.669v0.512h-2.249z"></path>
<path fill="#00feff" style="fill: var(--color2, #00feff)" d="M41.966 30.322v-3.243h1.136c0.218 0 0.416 0.030 0.59 0.086s0.322 0.156 0.439 0.302 0.178 0.326 0.178 0.542c0 0.229-0.067 0.419-0.198 0.572-0.134 0.15-0.315 0.253-0.55 0.306l0.872 1.439h-0.704l-0.758-1.372h-0.426v1.372h-0.58v-0.003zM42.549 28.475h0.476c0.469 0 0.704-0.156 0.704-0.472 0-0.159-0.064-0.272-0.191-0.339s-0.282-0.1-0.463-0.1h-0.526v0.91z"></path>
<path fill="#00feff" style="fill: var(--color2, #00feff)" d="M47.718 28.691c0-0.512 0.164-0.924 0.493-1.233s0.748-0.462 1.26-0.462c0.516 0 0.942 0.153 1.27 0.462s0.496 0.718 0.496 1.233c0 0.505-0.164 0.914-0.496 1.233s-0.754 0.478-1.267 0.478c-0.51 0-0.929-0.159-1.257-0.478-0.335-0.316-0.499-0.728-0.499-1.233zM48.352 28.691c0 0.349 0.104 0.635 0.315 0.857 0.208 0.226 0.479 0.336 0.808 0.336 0.332 0 0.603-0.113 0.815-0.336 0.208-0.226 0.315-0.512 0.315-0.857 0-0.339-0.104-0.621-0.312-0.847s-0.479-0.339-0.815-0.339c-0.332 0-0.603 0.113-0.811 0.339-0.211 0.226-0.315 0.508-0.315 0.847z"></path>
<path fill="#00feff" style="fill: var(--color2, #00feff)" d="M52.723 30.322v-3.243h2.112v0.505h-1.529v0.887h1.441v0.485h-1.441v1.366h-0.583z"></path>
<path fill="#00feff" style="fill: var(--color2, #00feff)" d="M58.372 30.322v-3.243h0.583v1.402h0.013l1.368-1.402h0.784l-1.529 1.498 1.633 1.744h-0.818l-1.438-1.625h-0.013v1.625h-0.583z"></path>
<path fill="#00feff" style="fill: var(--color2, #00feff)" d="M62.481 30.322v-3.243h0.771l1.518 2.429h0.010v-2.429h0.583v3.243h-0.741l-1.552-2.505h-0.010v2.505h-0.58z"></path>
<path fill="#00feff" style="fill: var(--color2, #00feff)" d="M66.849 28.691c0-0.512 0.164-0.924 0.493-1.233s0.748-0.462 1.26-0.462c0.516 0 0.942 0.153 1.27 0.462s0.496 0.718 0.496 1.233c0 0.505-0.164 0.914-0.496 1.233s-0.754 0.478-1.267 0.478c-0.51 0-0.929-0.159-1.257-0.478-0.332-0.316-0.499-0.728-0.499-1.233zM67.483 28.691c0 0.349 0.104 0.635 0.315 0.857 0.208 0.226 0.479 0.336 0.808 0.336 0.332 0 0.603-0.113 0.815-0.336 0.208-0.226 0.315-0.512 0.315-0.857 0-0.339-0.104-0.621-0.312-0.847s-0.479-0.339-0.815-0.339c-0.332 0-0.603 0.113-0.811 0.339-0.211 0.226-0.315 0.508-0.315 0.847z"></path>
<path fill="#00feff" style="fill: var(--color2, #00feff)" d="M72.478 30.322l-0.955-3.243h0.637l0.634 2.382h0.010l0.721-2.382h0.6l0.707 2.382h0.010l0.647-2.382h0.62l-0.955 3.243h-0.563l-0.768-2.432h-0.010l-0.768 2.432h-0.566z"></path>
<path fill="#00feff" style="fill: var(--color2, #00feff)" d="M77.419 30.322v-3.243h0.584v2.728h1.391v0.512h-1.975v0.003z"></path>
<path fill="#00feff" style="fill: var(--color2, #00feff)" d="M80.704 30.322v-3.243h2.165v0.505h-1.586v0.824h1.502v0.485h-1.502v0.917h1.669v0.512h-2.249z"></path>
<path fill="#00feff" style="fill: var(--color2, #00feff)" d="M84.445 30.322v-3.243h1.16c0.229 0 0.443 0.030 0.648 0.086s0.395 0.146 0.573 0.266 0.322 0.289 0.429 0.508c0.107 0.219 0.158 0.472 0.158 0.761 0 0.272-0.054 0.515-0.158 0.728-0.107 0.213-0.248 0.385-0.426 0.512s-0.369 0.223-0.576 0.286c-0.208 0.063-0.423 0.096-0.644 0.096h-1.163zM85.029 29.817h0.486c0.127 0 0.248-0.010 0.362-0.033 0.114-0.020 0.231-0.060 0.345-0.113s0.211-0.12 0.295-0.203c0.081-0.080 0.148-0.189 0.198-0.319 0.050-0.133 0.077-0.282 0.077-0.452 0-0.751-0.426-1.126-1.274-1.126h-0.486v2.246h-0.003z"></path>
<path fill="#00feff" style="fill: var(--color2, #00feff)" d="M91.763 28.471v1.681c-0.356 0.169-0.764 0.253-1.234 0.253-0.526 0-0.955-0.16-1.291-0.475-0.332-0.319-0.5-0.731-0.5-1.236 0-0.508 0.168-0.92 0.503-1.229s0.757-0.465 1.274-0.465c0.251 0 0.489 0.037 0.711 0.11s0.398 0.173 0.533 0.299l-0.402 0.432c-0.087-0.093-0.204-0.173-0.355-0.236s-0.312-0.093-0.479-0.093c-0.339 0-0.613 0.113-0.821 0.339s-0.315 0.508-0.315 0.847c0 0.352 0.104 0.638 0.315 0.861s0.493 0.336 0.848 0.336c0.248 0 0.466-0.037 0.651-0.113v-0.824h-0.687v-0.475h1.25v-0.010z"></path>
<path fill="#00feff" style="fill: var(--color2, #00feff)" d="M93.395 30.322v-3.243h2.166v0.505h-1.586v0.824h1.502v0.485h-1.502v0.917h1.669v0.512h-2.25z"></path>
<path fill="#00feff" style="fill: var(--color2, #00feff)" d="M95.645 31.668h-95.645v0.332h95.645v-0.332z"></path>
</symbol>
</defs>
</svg>
