<svg aria-hidden="true" style="position: absolute; width: 0; height: 0; overflow: hidden;" version="1.1" xmlns="http://www.w3.org/2000/svg" xmlns:xlink="http://www.w3.org/1999/xlink">
<defs>
<symbol id="icon-Group-50" viewBox="0 0 36 32">
<path fill="#00feff" style="fill: var(--color1, #00feff)" d="M5.731 6.687h30.090v25.313h-30.090v-25.313z"></path>
<path fill="#001e42" style="fill: var(--color2, #001e42)" d="M26.642 5.073h-0.017v0.172h0.017v-0.172z"></path>
<path fill="#001e42" style="fill: var(--color2, #001e42)" d="M19.465 14.066v-0.359l-0.588-0.902-0.493 0.313 0.495 0.761v0.187h-4.963v-1.89c0.137-0.151 0.217-0.342 0.217-0.549 0-0.453-0.373-0.822-0.831-0.822 0 0 0 0-0.002 0-0.222 0-0.431 0.086-0.588 0.241-0.159 0.155-0.246 0.361-0.246 0.583 0 0.21 0.083 0.401 0.217 0.549v0.782c0.234 0.398 0.518 0.768 0.857 1.103 0.47 0.464 1.013 0.831 1.603 1.093h4.424c0.586-0.26 1.125-0.625 1.593-1.086h-1.694v-0.004zM13.477 11.803c-0.023 0.023-0.050 0.040-0.079 0.053h-0.199c-0.091-0.038-0.155-0.126-0.155-0.229 0-0.067 0.027-0.13 0.073-0.178 0.048-0.048 0.112-0.073 0.178-0.073 0.139 0 0.253 0.113 0.253 0.25 0.004 0.067-0.023 0.13-0.072 0.176z"></path>
<path fill="#001e42" style="fill: var(--color2, #001e42)" d="M20.772 19.034c-0.402 0.153-0.814 0.279-1.233 0.377v0.969c-0.135 0.147-0.215 0.334-0.217 0.537v0.027c0.008 0.214 0.099 0.413 0.257 0.56 0.151 0.14 0.348 0.216 0.555 0.216 0.006 0 0.014 0 0.019 0h0.006c0.209 0.004 0.425-0.078 0.584-0.229 0.157-0.151 0.245-0.354 0.247-0.57v-0.011c-0.006-0.203-0.089-0.386-0.217-0.526v-1.349h-0.002zM20.335 21.079c-0.046 0.044-0.106 0.071-0.168 0.067h-0.027c-0.062 0.002-0.12-0.019-0.166-0.061-0.044-0.042-0.072-0.099-0.073-0.164 0-0.063 0.025-0.122 0.072-0.166 0.043-0.042 0.099-0.065 0.162-0.067h0.021c0.139-0.004 0.244 0.099 0.251 0.231 0 0.061-0.027 0.119-0.072 0.161z"></path>
<path fill="#001e42" style="fill: var(--color2, #001e42)" d="M16.857 19.651c-0.418-0.021-0.829-0.071-1.234-0.143v0.864c-0.139 0.147-0.22 0.338-0.222 0.545v0.027c0.008 0.214 0.099 0.413 0.257 0.56 0.083 0.076 0.182 0.134 0.286 0.17v1.871c0 0.076-0.062 0.14-0.145 0.141h-15.8v0.573h15.809c0.398-0.004 0.717-0.327 0.715-0.717v-1.871c0.309-0.111 0.537-0.403 0.543-0.749v-0.011c-0.006-0.201-0.085-0.378-0.211-0.518v-0.742zM16.246 21.146h-0.027c-0.002 0-0.006 0-0.008 0-0.124 0-0.228-0.097-0.232-0.227 0-0.063 0.025-0.122 0.072-0.166 0.043-0.042 0.099-0.065 0.162-0.067h0.021c0.143-0.004 0.244 0.099 0.251 0.231-0.004 0.13-0.108 0.237-0.24 0.229z"></path>
<path fill="#001e42" style="fill: var(--color2, #001e42)" d="M0.611 20.808c2.173 0.002 4.344 0.002 6.517-0.002 0.474 0 0.623-0.145 0.623-0.61 0-1.212 0-2.424 0-3.636h1.763v0.912c0 0.497 0.408 0.9 0.911 0.9h1.284v2.005c-0.135 0.147-0.215 0.335-0.217 0.537v0.027c0.008 0.214 0.099 0.413 0.257 0.56 0.151 0.14 0.348 0.216 0.555 0.216 0.006 0 0.014 0 0.019 0h0.006c0.004 0 0.008 0 0.012 0 0.215 0 0.418-0.080 0.57-0.229 0.157-0.151 0.246-0.354 0.247-0.57v-0.011c-0.006-0.203-0.089-0.386-0.217-0.526v-1.785c-0.681-0.354-1.319-0.791-1.902-1.305h-0.427v-0.401c-0.41-0.409-0.775-0.849-1.098-1.313v0.407h-1.761c0-3.1-0.002-6.202-0.006-9.303 0-0.153-0.056-0.325-0.139-0.457-0.174-0.279-0.4-0.526-0.57-0.805-0.133-0.218-0.298-0.306-0.551-0.3-0.402 0.008-4.785 0.011-5.071-0.004-0.363-0.017-0.613 0.082-0.773 0.42-0.101 0.208-0.271 0.384-0.387 0.587-0.101 0.174-0.242 0.365-0.242 0.549-0.015 4.515-0.014 9.031-0.012 13.548 0 0.438 0.159 0.589 0.609 0.589zM12.144 20.754c0.043-0.042 0.099-0.065 0.162-0.067h0.021c0.135-0.004 0.244 0.099 0.251 0.231-0.002 0.061-0.027 0.119-0.073 0.161-0.046 0.044-0.102 0.071-0.168 0.067h-0.027c-0.060 0.002-0.122-0.019-0.166-0.061s-0.072-0.099-0.073-0.164c0.002-0.063 0.027-0.122 0.073-0.166zM3.842 20.144c-0.58-0.017-1.025-0.491-0.998-1.065 0.025-0.55 0.499-0.973 1.073-0.952 0.57 0.019 1.009 0.47 0.998 1.026-0.012 0.566-0.489 1.007-1.073 0.99zM6.243 17.333c-0.793 0.004-1.587 0.002-2.38 0.002-0.781 0-1.562 0.002-2.345 0-0.402-0.002-0.449-0.055-0.45-0.487-0.002-0.457 0.031-0.503 0.427-0.503 1.587-0.004 3.173-0.004 4.76 0 0.396 0 0.435 0.052 0.435 0.499 0 0.434-0.044 0.487-0.447 0.489zM1.070 7.753c0.002-0.428 0.124-0.558 0.543-0.56 1.506-0.006 3.014-0.006 4.52-0.002 0.42 0.002 0.551 0.136 0.555 0.554 0.006 0.738 0.006 1.478 0 2.217-0.004 0.436-0.131 0.556-0.58 0.558-0.748 0.002-1.494 0-2.243 0v-0.002c-0.748 0-1.494 0.002-2.243-0.002-0.42-0.002-0.549-0.13-0.553-0.549-0.004-0.738-0.004-1.478 0-2.215zM1.458 11.99c1.611 0.011 3.223 0.011 4.833 0 0.389-0.002 0.402 0.218 0.402 0.501 0 0.279-0.037 0.476-0.398 0.47-0.806-0.015-1.61-0.006-2.417-0.006s-1.612-0.011-2.417 0.006c-0.362 0.008-0.402-0.182-0.398-0.466 0.006-0.275-0.002-0.507 0.394-0.505zM1.495 14.154c1.587 0.011 3.175 0.002 4.76 0.004 0.393 0 0.435 0.057 0.435 0.499 0 0.434-0.041 0.486-0.447 0.487-0.793 0.004-1.587 0.002-2.38 0.002s-1.587-0.011-2.38 0.006c-0.408 0.010-0.412-0.227-0.421-0.524-0.010-0.317 0.075-0.476 0.433-0.474z"></path>
<path fill="#001e42" style="fill: var(--color2, #001e42)" d="M20.252 6.91c-0.928 0-1.856-0.002-2.784 0.002-0.313 0.002-0.396 0.086-0.4 0.394s-0.002 0.617 0 0.925c0 0.426 0.058 0.484 0.497 0.484 0.099 0 0.197 0 0.294 0 0.336 0 0.673 0.002 1.009 0.002h0.012v1.65c-0.11 0.040-0.211 0.101-0.296 0.185-0.159 0.155-0.246 0.361-0.246 0.583 0 0.405 0.302 0.742 0.692 0.809l0.493 0.755 0.491-0.313-0.373-0.572c0.041-0.029 0.081-0.059 0.118-0.096 0.159-0.155 0.246-0.361 0.246-0.583 0-0.352-0.226-0.65-0.539-0.766v-1.652c0.215 0 0.427 0 0.642-0.004 0.039 0 0.073 0.002 0.104 0.006h2.049c0.083 0 0.164 0 0.247 0-0.203-0.656-0.534-1.269-0.98-1.806-0.425 0-0.851-0.002-1.276-0.002zM18.114 8.188c-0.197-0.008-0.363-0.182-0.363-0.378s0.17-0.367 0.369-0.373c0.217-0.006 0.387 0.162 0.385 0.378-0.002 0.214-0.176 0.382-0.391 0.373zM19.351 11.312c-0.048 0.048-0.112 0.073-0.178 0.073-0.139 0-0.253-0.113-0.253-0.248 0-0.067 0.027-0.13 0.073-0.178 0.048-0.048 0.112-0.073 0.178-0.073 0.139 0 0.253 0.113 0.253 0.25 0.002 0.067-0.025 0.13-0.073 0.176zM19.469 8.187c-0.22 0.004-0.387-0.164-0.381-0.386 0.006-0.208 0.168-0.363 0.379-0.361s0.371 0.164 0.371 0.373c0 0.208-0.162 0.373-0.369 0.375zM20.809 8.188c-0.209 0.006-0.398-0.172-0.398-0.375-0.002-0.195 0.17-0.367 0.371-0.375 0.217-0.008 0.394 0.162 0.394 0.375-0.002 0.201-0.166 0.369-0.367 0.375z"></path>
<path fill="#001e42" style="fill: var(--color2, #001e42)" d="M17.59 5.644c0 0.43 0.118 0.549 0.559 0.549 0.886 0 1.771 0 2.658 0-0.387-0.319-0.814-0.581-1.266-0.78-0.184 0-0.365 0-0.549 0-0.348 0-0.547-0.111-0.626-0.361-0.253-0.048-0.512-0.076-0.773-0.088-0.002 0.227-0.002 0.453-0.002 0.68z"></path>
<path fill="#001e42" style="fill: var(--color2, #001e42)" d="M18.454 0.975c0.101-0.118 0.259-0.178 0.493-0.18 0.911-0.008 1.819-0.002 2.73-0.002v-0.002c0.874 0 1.748-0.002 2.624 0 0.555 0.002 0.746 0.185 0.746 0.724 0.002 1.059 0.002 2.116 0 3.175 0 0.036-0.004 0.069-0.006 0.103 0.259 0.356 0.495 0.728 0.7 1.116 0.019-0.078 0.027-0.176 0.027-0.298 0-1.676 0-3.351 0-5.027 0-0.482-0.104-0.585-0.601-0.585-1.16 0-2.32 0-3.48 0-1.17 0-2.337 0-3.507 0-0.483 0-0.59 0.101-0.59 0.566 0 0.117 0 0.233 0 0.352 0.29 0.006 0.578 0.025 0.864 0.057z"></path>
<path fill="#001e42" style="fill: var(--color2, #001e42)" d="M23.378 4.329c-3.323-3.286-8.729-3.286-12.053 0s-3.322 8.63 0.002 11.916c2.95 2.917 7.54 3.242 10.86 0.979l7.865 8.578c0.704 0.696 1.945 0.596 2.772-0.22 0.827-0.818 0.928-2.045 0.222-2.741l-8.727-7.705c2.343-3.286 2.030-7.869-0.942-10.807zM21.851 14.733c-2.481 2.452-6.515 2.452-8.996 0s-2.481-6.441 0-8.894c2.48-2.452 6.515-2.452 8.996 0 2.48 2.454 2.48 6.443 0 8.894z"></path>
</symbol>
</defs>
</svg>
